<svg width="150" height="150" viewBox="0 0 512 512" xmlns="http://www.w3.org/2000/svg">
  <defs>
    <!-- Background -->
    <linearGradient id="bgGradient" x1="0" y1="0" x2="1" y2="1">
      <stop offset="0%" stop-color="#111" />
      <stop offset="100%" stop-color="#2a2a2a" />
    </linearGradient>

    <!-- Gear highlight -->
    <linearGradient id="gearGradient" x1="0" y1="0" x2="1" y2="1">
      <stop offset="0%" stop-color="#FFE066" />
      <stop offset="100%" stop-color="#CC8400" />
    </linearGradient>

    <!-- Arrow -->
    <linearGradient id="arrowGradient" x1="0" y1="0" x2="1" y2="1">
      <stop offset="0%" stop-color="#00CFFF" />
      <stop offset="100%" stop-color="#005FDD" />
    </linearGradient>

    <!-- Cube -->
    <linearGradient id="cubeGradient" x1="0" y1="0" x2="1" y2="1">
      <stop offset="0%" stop-color="#ffffff" />
      <stop offset="100%" stop-color="#666666" />
    </linearGradient>

    <!-- Drop Shadow (for arrows) -->
    <filter id="shadow" x="-50%" y="-50%" width="200%" height="200%">
      <feDropShadow dx="2" dy="2" stdDeviation="3" flood-color="#000000" flood-opacity="0.5" />
    </filter>
  </defs>

  <!-- Background -->
  <rect width="512" height="512" rx="96" ry="96" fill="url(#bgGradient)" />

  <!-- Gear with strong contrast -->
  <circle cx="256" cy="256" r="80" stroke="url(#gearGradient)" stroke-width="18" fill="none" />
  <circle cx="256" cy="256" r="22" fill="url(#gearGradient)" />

  <g stroke="#FFD700" stroke-width="12">
    <line x1="256" y1="160" x2="256" y2="120" />
    <line x1="256" y1="352" x2="256" y2="392" />
    <line x1="160" y1="256" x2="120" y2="256" />
    <line x1="352" y1="256" x2="392" y2="256" />
  </g>

  <!-- Arrows with shadow and emphasis -->
  <polygon points="180,140 200,120 220,140 210,140 210,180 190,180 190,140" fill="url(#arrowGradient)"
    filter="url(#shadow)" />
  <polygon points="332,372 312,392 292,372 302,372 302,332 322,332 322,372" fill="url(#arrowGradient)"
    filter="url(#shadow)" />

  <!-- Cubes with depth -->
  <rect x="100" y="400" width="48" height="48" fill="url(#cubeGradient)" rx="4" ry="4" />
  <rect x="232" y="400" width="48" height="48" fill="url(#cubeGradient)" rx="4" ry="4" />
  <rect x="364" y="400" width="48" height="48" fill="url(#cubeGradient)" rx="4" ry="4" />
</svg>
